/* XPM */
static char *ad9d59aa705540d2e5d164c817f731c0nxVuwTlbhbVP3j9e[] = {
/* columns rows colors chars-per-pixel */
"64 64 144 2 ",
"   c #01022C",
".  c #000B2F",
"X  c #010436",
"o  c #000A35",
"O  c #02053A",
"+  c #09063E",
"@  c #000B39",
"#  c #001937",
"$  c #00113C",
"%  c #031A3B",
"&  c #062A3D",
"*  c #05303E",
"=  c #060540",
"-  c #0B0641",
";  c #030C42",
":  c #080C43",
">  c #0C0C43",
",  c #090C45",
"<  c #0A0C44",
"1  c #0A0C43",
"2  c #020A4A",
"3  c #03094B",
"4  c #030A4C",
"5  c #030A4D",
"6  c #040A4C",
"7  c #040B4D",
"8  c #030F4C",
"9  c #030B4B",
"0  c #001040",
"q  c #011142",
"w  c #001043",
"e  c #031344",
"r  c #021444",
"t  c #021243",
"y  c #081045",
"u  c #091045",
"i  c #081145",
"p  c #091145",
"a  c #091145",
"s  c #031F41",
"d  c #02104D",
"f  c #03104C",
"g  c #0D1249",
"h  c #0E0551",
"j  c #040A53",
"k  c #0D0C53",
"l  c #0D0C54",
"z  c #0E0B54",
"x  c #04065E",
"c  c #05065F",
"v  c #0F0758",
"b  c #0F0858",
"n  c #160E51",
"m  c #170D52",
"M  c #130B55",
"N  c #1A0D55",
"B  c #1C0F55",
"V  c #1C0B56",
"C  c #100A58",
"Z  c #1C0F5A",
"A  c #001254",
"S  c #031B55",
"D  c #03125B",
"F  c #041159",
"G  c #041259",
"H  c #04125C",
"J  c #05135C",
"K  c #05135E",
"L  c #04125B",
"P  c #031E59",
"I  c #051D5A",
"U  c #041E59",
"Y  c #1B125B",
"T  c #1C125B",
"R  c #1C115A",
"E  c #200E5C",
"W  c #022042",
"Q  c #042042",
"!  c #052F42",
"~  c #062F43",
"^  c #062E40",
"/  c #063242",
"(  c #043F47",
")  c #063549",
"_  c #043649",
"`  c #073748",
"'  c #04364A",
"]  c #04364A",
"[  c #043A4B",
"{  c #043A4C",
"}  c #063B4D",
"|  c #052259",
" . c #040661",
".. c #040A61",
"X. c #050B62",
"o. c #050A63",
"O. c #05176B",
"+. c #03186A",
"@. c #060A76",
"#. c #070B77",
"$. c #060A75",
"%. c #051971",
"&. c #2F116D",
"*. c #2F116D",
"=. c #31116E",
"-. c #31126E",
";. c #32126F",
":. c #250A72",
">. c #042066",
",. c #092964",
"<. c #03276B",
"1. c #05256C",
"2. c #04286F",
"3. c #03286D",
"4. c #052871",
"5. c #032974",
"6. c #032D7E",
"7. c #054147",
"8. c #054146",
"9. c #054449",
"0. c #064548",
"q. c #05434F",
"w. c #05464F",
"e. c #05414B",
"r. c #07675A",
"t. c #05675B",
"y. c #06665D",
"u. c #08665E",
"i. c #071A86",
"p. c #081A86",
"a. c #042F83",
"s. c #043AA2",
"d. c #51158D",
"f. c #420B9E",
"g. c #531592",
"h. c #430BA0",
"j. c #6518A6",
"k. c #6617AA",
"l. c #6518A9",
"z. c #13448C",
"x. c #115197",
"c. c #125198",
"v. c #2B7DBD",
"b. c #6E11D1",
/* pixels */
"O q.9.X @ o @ X X X X O X X X @ @ @ o @ @ @ @ o @ % @ $ $ $ $ $ @ w.0.X @ @ @ o X X O X O O X @ @ @ o @ @ @ @ @ @ % $ $ $ @ $ $ ",
"@ ( ) X ; 7 o X X X X X o o @ @ @ @ ..@ @ @ @ @ % ! @ q @ $ q $ O 9.` X @ d X O X O X X o . @ @ o @ X.@ @ @ o @ % / @ $ $ $ w $ ",
"$ X X @ @ @ X X X X O o m ;.o @ o O  .O O o o @ @ @ $ $ $ q #.w $ O X o @ @ o X X X X o n *.o @ o O  .@ X @ @ @ @ @ q $ $ w #.q ",
"@ @ @ @ @ @ @ o @ @ @ o ;.j.o o X X X X X X @ @ @ $ $ T p $ ; $ @ @ @ @ @ o @ O @ @ @ . ;.k.o O O X X X X X o @ @ @ $ R p @ q $ ",
"@ @ @ @ @ @ @ @ @ @ @ @ o o X X X O X X 5 O o @ @ @ $ p $ @ $ $ @ @ @ o @ @ @ @ @ @ @ @ o o O X X X X X 5 = o @ @ $ $ p $ $ @ $ ",
"@ @ @ o o @ @ @ o o @ @ @ O X X X X X X O O @ @ @ @ $ $ $ $ $ $ @ @ @ o o @ @ @ @ @ @ @ @ @ X X X O X X O O o @ @ @ $ $ $ $ $ $ ",
"@ @ o K H o o @ @ < o @ @ X X X X O X X X @ @ @ @ @ $ $ $ $ < $ @ @ o H K o @ @ @ u o @ @ X X X X X X X O @ @ @ @ @ @ $ $ q i $ ",
"$ @ o H H o @ o > Z o @ @ X X X X X O @ @ o @ @ @ @ @ $ $ e l $ @ @ o G H o @ o - N o @ O X X X X X O @ @ o @ @ @ @ @ $ $ ; k $ ",
"@ @ @ o X @ @ @ o o @ o X 5 O X O o @ o $ e o o @ @ @ @ @ $ $ q $ @ @ o X o @ @ @ o @ O X 3 + X X O @ @ @ e o @ o @ @ @ @ $ $ $ ",
"@ @ @ O X X X @ @ @ @ @ X O O O @ @ @ X @ I X + @ o O Q } @ $ @ @ @ @ O O X o @ @ @ @ X X X X X o @ @ . @ U X + @ @ X Q } @ $ $ ",
"@ o O X X X X @ @ @ @ @ X X O o @ @ X 4.3.  X 3 @ @ X ) t.@ @ @ @ @ o X X X X O @ @ @ @ X X X @ @ @   4.4.  X 6 @ @ X ) r.@ @ @ ",
"@ X X X X X @ % O @ @ X ; @ O @ o o   1.>.X X X o @ @ @ @ @ @ o o X O X O X @ % @ @ @ X ; @ @ @ @ @   ,.+.X X X @ @ @ @ @ @ @ o ",
"X O X X X X $ & X o O . U q o @ ; h X     $ & X @ @ @ @ @ @ o B - X X X X X % & X o @ X | q o @ ; h X X X $ & X @ @ @ @ @ @ o E ",
"X X X X 5 @ o O o :.f.; X @ @ o + + X X O @ @ @ @ @ @ @ o ; @ + O X X X j O o X o :.h.; X o @ @ @ + X X O O o o @ @ @ o @ ; @ - ",
"X X X X @ O i @ o f.b.v o o @ @ X X X X X X X @ o o @ @ o h - X X O X X + X r @ o f.b.v o @ @ @ X X X X X X X @ o o @ @ o h + X ",
"X X X X X X | $ o ; v . ; 8 o @ X X O X O X @ o j j o @ X X X O X X X X X X | e o ; z . @ d o @ X X X X X X X o j j o @ X X X X ",
"X X O O X @ o @ @ @ o @ @ @ o = 5 X O X X X X X h 5 X X X X O X X X O @ X @ o o @ @ o @ @ @ @ @ 3 X X X X X X O j j X X X X X O ",
"X X + 5 X @ @ o @ @ @ @ @ @ o @ O X X X X O , X X X O X X X X X X O O 9 o @ @ @ @ $ @ @ @ X O @ O X O X X X = O X X O X X O X X ",
"X X X O @ @ @ ; $ $ $ @ X & % X X X X X X ; s.= X O X X X X X X X X X X @ @ @ q @ $ @ @ @ * % X X X X O X , s.= X X X X X X X O ",
"X X X @ @ @ o U q $ $ @ @ % @ X X X X X X O = O X X X X - - X X X X O @ o @ o S i $ @ @ @ % $ X X X X X X X ; X X X X X - - X X ",
"X X @ @ @ @ $ $ @ q @ @ @ @ @ X h - X X X X X X X O O   g.d.  O X O @ @ @ @ $ $ $ $ $ @ @ @ @ X h - X X X X X X X X +   g.d.  X ",
"@ @ @ @ @ @ $ $ $ $ @ @ o @ X X = X X X X X X X X X X X + + X X O @ @ @ @ $ $ $ $ $ @ @ @ @ X X + O X X X X X X X X X X + + X X ",
"@ @ @ o r r $ $ $ @ @ o @ @ = X X X X X X O = X O X X X   = h X @ @ @ @ r r $ $ $ @ @ o @ @ ; O X X X X X O = X X X X X X O h X ",
"@ o @ . a.6.o $ @ o @ , @ ; i.+ X X X X X = 3 X X - O X X X ; @ @ o o o a.6.o q @ o o 9 @ ; i.O X X X X X = 3 X X - X X X O + o ",
"@ ; @ $ r r $ @ @ > o C ; X O X X X V - X X X X X V + X O @ o @ @ ; @ $ q q $ @ @ > o C : o = X X X V - X X X O X V + X X O o @ ",
"o k i $ @ $ @ @ > R o o O X X X X X - X X X X X X X X X @ @ @ O o C e $ $ $ $ o - B o o o X X X X X - X X X X X X X X @ o @ @ O ",
"$ $ $ o $ $ @ @ @ o : @ X X X X O X X X O X X X X X O @ @ o X * % $ $ $ $ @ @ @ @ o < @ X X X X X X X X X X X O X X @ @ @ o o / ",
"$ $ r %.@ @ @ o @ o z - X X X X X X X X O = X X o ; @ @ o R < # % @ q O.q @ @ @ @ o C + X X X X X X X X O + X X O ; @ @ o R p # ",
"$ $ q O.@ @ @ @ @ @ X X X X X - O X O   8 5.. o ; i.; @ @ e g R o $ q +.@ o @ @ @ @ X X X X X + X X X X f 5.. @ w p.; @ @ i g R ",
"$ $ $ o @ @ @ @ @ X X X X X X h - X X X z.v.A o o ; @ @ $ $ $ p $ $ $ o @ @ @ @ @ O X X X X X h - X X X z.v.j o @ @ @ @ $ $ $ p ",
"@ $ $ @ @ @ @ @ o X O X O X X X X O O X ,.x.@ @ ; o @ $ $ $ $ $ $ % $ @ o @ @ @ O X X X X X X X X O O X ,.c.@ @ ; o @ $ $ $ $ $ ",
"$ @ @ @ @ @ o @ O X $ & X X X X O @ @ o ; A X @ 8 o $ $ $ $ @ $ $ O O @ @ @ @ @ X X $ & X O O X @ @ @ o @ A o ; d o q $ $ $ $ @ ",
"O q.7.X @ o @ O O X X @ X O O @ @ @ o @ @ o @ o $ % @ $ $ $ $ $ @ e.8.X o o @ o X X O @ X O O @ @ @ o @ o o @ @ o % $ $ $ q $ $ ",
"O 9.) o ; d X X X X X X o . @ @ @ @ o.@ @ @ @ O # / @ $ $ $ q $ O 7.` X q d X X X X X X o . @ @ o @ o.@ @ @ @ @ % / @ $ $ @ ; $ ",
"$ X X @ @ ; o X X X @ o n ;.o @ o O c X X @ @ @ @ @ $ $ $ ; $.q $ O X @ @ @ o X X X @ o m ;.o @ @ @ x O X @ @ @ @ @ q $ $ w $.q ",
"@ @ @ @ @ o o X @ @ @ . ;.j.@ O X X . X X X @ @ @ $ $ R i $ ; $ @ @ @ @ @ @ @ O @ @ @ . *.j.o O X X X X X X @ @ @ @ $ R p $ @ $ ",
"$ @ @ @ o @ @ @ @ @ @ @ o o X X X X O X 5 O @ @ @ @ $ p q $ $ $ @ @ o @ @ @ @ @ @ @ @ @ o o X X X X O X j O o @ @ $ $ p $ $ $ $ ",
"@ @ @ o o @ @ @ @ o @ @ @ o X X X O X X O O @ @ @ @ $ $ @ $ $ $ @ @ @ o o @ @ @ @ @ @ @ @ @ O X X X X X + O o @ @ @ $ $ $ $ @ $ ",
"@ @ o H H o @ @ @ > o @ o O O X X X X X o @ @ @ @ @ @ $ @ q i $ @ @ o H H o @ @ @ < @ @ o X X O X X X X X @ @ @ @ @ @ $ $ q i $ ",
"@ @ o L H o @ @ > B o @ X X X X O O O O @ o @ @ @ @ @ $ % ; l $ @ @ o G H o @ o - N o @ X X X X X X X @ @ o @ @ @ @ o $ $ ; k $ ",
"@ @ @ o o X @ @ o o @ @ X 3 O O X X @ @ @ w @ @ @ @ @ @ @ $ $ $ @ @ @ o X o @ @ o o @ @ X 3 O X X O @ @ @ q @ @ @ @ @ @ @ $ $ $ ",
"@ @ @ O X X O o @ @ @ O X O O X @ @ @ . @ I X ; @ @ O Q } @ $ @ @ @ @ @ X X O @ @ @ @ O X O O X o @ @   @ I X @ o @ X s } @ $ $ ",
"@ @ o X X X X @ @ @ @ o X X X X @ @ X 4.<.  X 3 @ @ X ) y.@ @ @ @ @ O X X X X O @ @ @ o X X X O @ @ X 4.4.  O 6 @ @ O ) u.@ @ @ ",
"@ o X O X X @ # @ @ @ X ; O o @ @ o   1.+.X X X o @ @ @ @ @ @ @ o O X X O X @ % @ @ @ X ; @ X @ @ @   1.1.  X X @ @ @ @ @ @ @ o ",
"O X X X X X % ^ O o o o | ; @ o < h X     $ & X @ @ @ @ @ @ o V - X X X X X % & X o @ X U e o o ; M X     $ & X @ @ @ o @ @ o E ",
"X X X X 5 O X X o :.h.; o @ @ @ @ + X O X o @ o @ @ @ @ @ ; @ - O X X X 3 + o O o :.h.; o o @ @ @ + X O X @ $ O @ @ @ @ @ ; @ - ",
"X X X X + o f @ X f.b.v o o @ @ O X X X X O X @ o o @ @ o h - X X X X X O X r $ o f.b.b o @ @ @ O X X X O X X @ o o @ @ o h + X ",
"X X X X X X | e o ; b o @ 8 o o X X O X X X O o j j o @ X X X O X O X X X X | w o ; C . @ 8 o @ X X X X X X X o j j o @ X X X X ",
"X X + O X @ X @ @ o o @ @ ; o @ 3 X X X X X X X j 5 X X X X X X X X O O X o o @ @ @ o @ @ @ o ; 9 X X X X X X X j 5 X O X X X X ",
"X X O 5 o @ @ o @ @ @ @ @ o @ O = X X X X O , X X X X X X X X X O X = 3 o @ @ @ @ @ @ @ @ X @ @ O X X X X X , X X X X X X X X X ",
"X X X O @ @ @ q @ $ $ @ X ! % X X X X X X 3 s.@ X O X X X X X X X X X X @ @ o w $ $ @ @ @ & % X X X X X X ; s.= X X X X X X O X ",
"O X O @ @ @ o S r $ @ @ @ % @ X X X X X X X = O X X X X - - X X O X X @ @ @ @ S r $ @ @ @ % @ o X X X X X O = X X X X X - - X X ",
"X X @ @ o @ $ @ @ $ @ @ @ @ O X h - X X X X X X X X +   g.d.  X X X @ @ @ $ $ @ $ $ $ @ @ O @ X h - X X X X X X X X O   g.d.  O ",
"o @ @ @ @ @ $ $ $ $ @ @ @ o o X - X X X X X X X X X X X + - X X X @ @ @ @ $ $ $ $ @ @ @ @ @ X X = O X X X X X X O X X X - - X X ",
"@ @ @ @ r r $ $ $ @ @ o @ @ O O X X O X X O = X X X X X X = h X @ @ o @ r r @ $ $ @ @ @ o @ ; O X X X X X O = X X X X X X O h X ",
"@ o @ o a.a.. $ @ @ @ , @ ; p.= X X X X X = 3 X X - O X X X = o @ o @ o a.6.o $ @ o @ , @ ; i.= X X X X X = 3 X X - X X X X + o ",
"o ; @ $ q q $ @ @ > o C - o O O X X V - X X X X X m - X X @ o @ @ ; ; $ q r $ @ @ u o C ; X + X X X V - X X X X X V - X X o @ @ ",
"o k e $ $ $ @ o > R o o o X X X X X - O X X O X X X X O @ @ @ O o M ; % $ @ $ o - B o o @ X X X X X - O X X X X X X X X @ @ @ O ",
"@ $ $ $ $ $ @ @ @ o ; @ O X X X X X X X X X X X X X o @ @ o o ! % @ $ o $ $ @ @ @ o , @ X X X X X X X X X X O X X X @ @ @ o X / ",
"$ $ r O.; o @ @ @ o C - X X X X X X X X O = X X @ @ @ @ o R : # % @ w %.q @ @ @ @ o b + X X X X X X X X O + X o O ; @ @ o R i # ",
"$ $ q O.@ @ @ @ @ @ X X X X X - X X O   ; 5.  @ ; p.; @ $ e g R $ $ q O.@ @ @ @ @ @ o X X X X O O X X X f 5.  @ ; i.@ @ @ e g Z ",
"$ $ $ o X @ @ @ @ X X X X X X h + X X X z.v.A o @ @ @ $ @ $ @ g $ $ $ o @ @ @ o @ O X X X X X h - X X X z.v.A o @ ; @ $ % @ @ p ",
"$ $ $ @ @ @ @ @ @ X X X O X X X X X @ o ,.x.o @ ; o @ $ $ $ $ $ $ $ $ @ @ o @ @ O X X X X X X X X o O X ,.x.@ @ ; @ @ q $ $ $ $ ",
"$ $ @ @ @ @ @ o X X $ & X X X X O @ @ o ; D o ; f @ $ $ $ $ $ $ @ $ @ O @ @ @ @ X O $ ^ X O X O @ @ @ o ; A . ; d o $ $ $ $ $ $ "
};
