/* XPM */
static char *_98882b4ff7340f4a591183e5bb1b372KsDhW3RcXw0ax4Hr[] = {
/* columns rows colors chars-per-pixel */
"64 64 205 2 ",
"   c None",
".  c #020200",
"X  c #090600",
"o  c #0E0D01",
"O  c #1D1D01",
"+  c #191200",
"@  c #282501",
"#  c #6B3E00",
"$  c #764400",
"%  c #784700",
"&  c #7C4B02",
"*  c #784A04",
"=  c #625A03",
"-  c #7F5801",
";  c #6D6D03",
":  c #6C6003",
">  c #747203",
",  c #804E02",
"<  c #865101",
"1  c #8A5502",
"2  c #8B5E01",
"3  c #8A5B05",
"4  c #925D02",
"5  c #865B1B",
"6  c #895D1D",
"7  c #8E6201",
"8  c #9D6504",
"9  c #9A6803",
"0  c #9B7102",
"q  c #8E611D",
"w  c #946419",
"e  c #A66D05",
"r  c #AD7306",
"t  c #AB7904",
"y  c #A97109",
"u  c #B27604",
"i  c #B47A06",
"p  c #B67C0B",
"a  c #BD7C09",
"s  c #B87E07",
"d  c #A16F1C",
"f  c #A1701E",
"g  c #B67E11",
"h  c #B97E14",
"j  c #8B6125",
"k  c #936D36",
"l  c #96713D",
"z  c #99733D",
"x  c #9C7130",
"c  c #A27A3A",
"v  c #C17F0A",
"b  c #AB8503",
"n  c #A98406",
"m  c #BC8606",
"M  c #BE8B07",
"N  c #B78908",
"B  c #B19503",
"V  c #BA8212",
"C  c #B9831A",
"Z  c #B3930F",
"A  c #BCAA05",
"S  c #BDAB08",
"D  c #B9B906",
"F  c #BC8826",
"G  c #B18B39",
"H  c #C18209",
"J  c #C28E08",
"K  c #D38E0C",
"L  c #C69506",
"P  c #C99907",
"I  c #C79808",
"U  c #D5920C",
"Y  c #DA980C",
"T  c #CF9614",
"R  c #E29A0E",
"E  c #C4A304",
"W  c #C9A406",
"Q  c #CCAB06",
"!  c #D1A507",
"~  c #D3AA05",
"^  c #D6A40A",
"/  c #D5B206",
"(  c #D5B805",
")  c #DABB06",
"_  c #CCA01C",
"`  c #D6B317",
"'  c #EEAB0F",
"]  c #F2AC0F",
"[  c #E9B30B",
"{  c #F2B20F",
"}  c #F3BD0D",
"|  c #EEA310",
" . c #F2A610",
".. c #F1A910",
"X. c #C89D29",
"o. c #C89C27",
"O. c #C19134",
"+. c #C2943C",
"@. c #C4983D",
"#. c #D8B738",
"$. c #D2AD2E",
"%. c #DFDF06",
"&. c #D7D706",
"*. c #D0C406",
"=. c #E2CA07",
"-. c #E9CD06",
";. c #E9C709",
":. c #F6CC0B",
">. c #F6C70D",
",. c #EED307",
"<. c #EED209",
"1. c #F0D507",
"2. c #F6DD07",
"3. c #F8DF07",
"4. c #F5D309",
"5. c #F8DB0A",
"6. c #F8D50B",
"7. c #F0DC13",
"8. c #EDE706",
"9. c #E1E006",
"0. c #F4E207",
"q. c #F9E207",
"w. c #F5EE07",
"e. c #FAEC07",
"r. c #F9E30A",
"t. c #FBE909",
"y. c #F7F207",
"u. c #FCF407",
"i. c #FFFF07",
"p. c #FDF308",
"a. c #FFFE0B",
"s. c #F7F10C",
"d. c #F8E217",
"f. c #FFFF17",
"g. c #FFFF1F",
"h. c #D3D12A",
"j. c #F9E727",
"k. c #FFFF25",
"l. c #FFFE3B",
"z. c #F9EA3E",
"x. c #A7875C",
"c. c #A9895D",
"v. c #A8834D",
"b. c #AC8F66",
"n. c #AD916B",
"m. c #B59B78",
"M. c #BEA673",
"N. c #C59942",
"B. c #C69B49",
"V. c #CCA54C",
"C. c #D5B453",
"Z. c #CAA762",
"A. c #CDAA64",
"S. c #D1AD68",
"D. c #D3B170",
"F. c #DABC69",
"G. c #E4CF5F",
"H. c #FBED40",
"J. c #FFFF4E",
"K. c #FCF353",
"L. c #FFFD55",
"P. c #EFE751",
"I. c #EDDF68",
"U. c #EDDD7C",
"Y. c #EEE26A",
"T. c #FFFE62",
"R. c #FEFC6A",
"E. c #FEF763",
"W. c #FEFC75",
"Q. c #FEFD7A",
"!. c #EFE278",
"~. c #BDA686",
"^. c #BEA88A",
"/. c #BFAC94",
"(. c #D6BC8A",
"). c #D7BB87",
"_. c #DAC293",
"`. c #DFC799",
"'. c #E2CB9F",
"]. c #FFFE84",
"[. c #FFFE89",
"{. c #FAF380",
"}. c #FFFE96",
"|. c #FFFF99",
" X c #D1C3B1",
".X c #DCCEB2",
"XX c #DAC7A3",
"oX c #E2CCA3",
"OX c #E5D6B9",
"+X c #EFE2A3",
"@X c #FFFFA4",
"#X c #FFFFB4",
"$X c #FFFFBE",
"%X c #F4EBA2",
"&X c #EADCC0",
"*X c #EFE3C3",
"=X c #EEE2CC",
"-X c #FCFACA",
";X c #FFFFD0",
":X c #ECE7DD",
">X c #FFFFE5",
",X c #FFFFF6",
"<X c #FEFEFD",
"1X c #F9F5F0",
"2X c #F6EFE3",
/* pixels */
"                                                                                                                                ",
"                                                                                                                                ",
"                                                                                                                                ",
"                                                                                                                                ",
"                                                                                                                                ",
"                                                            V.O.+.O.                                                            ",
"                                                            F u u u ).                                                          ",
"                                                            F u i u _.                                                          ",
"                                                        OX_._ P P P F.                                                          ",
"                                                        g m <.2.2.2.! i Z.                                                      ",
"                                                      OXg m 1.3.3.3.! u A.                                                      ",
"                                                      .Xg m ,.3.2.3.! u S.                                                      ",
"                                                      OXg m 0.u.p.u.~ u Z.                                                      ",
"                                                      &Xp m y.i.i.i./ u Z.                                                      ",
"                                                      .Xp m w.i.i.i./ u S.                                                      ",
"                                                      XXO.o.w.i.i.i.` O.D.                                                      ",
"                                                  oXC V.2X-Xk.i.i.i.[.1X`.C B.                                                  ",
"                                                  _.u N.<X>Xk.i.i.i.}.<X'.u @.                                                  ",
"                                                  (.u @.1X>Xk.i.i.i.}.<X'.u @.                                                  ",
"                                          oX).).).C.~ #.-X#Xg.i.i.i.W.;XU.~ $.    ).                                            ",
"                                          N.u u u ! 3.j.].W.f.i.i.i.J.[.K.r.;.i i u p                                           ",
"                                          +.u i u ! 3.j.].W.f.i.i.i.J.[.K.2.;.s i i p                                           ",
"                                        :XN.s V h _ r.j.Q.W.f.i.i.i.J.].L.r.<.V p V V                                           ",
"                              k z +.+.+.@.G.Y.+X=X%XR.L.k.g.a.i.i.i.f.k.H.R.{.*X*X!.Y.V.+.+.+.G                                 ",
"                              % 1 u u u s I.[.;X<X;X[.R.a.i.i.i.i.i.i.i.l.[.@X<X,X|.].o.u u i 8 %                               ",
"                              % 1 u i i g Y.[.;X<X;X[.R.a.a.i.i.i.i.i.i.l.Q.@X<X,X|.].o.u u i 9 %                               ",
"                              % 2 L I o.X.P.T.}.$X}.E.P.D D y.i.i.i.&.D h.E.W.#X#XW.R.#.o.T P t %                               ",
"                              % 0 5.7.W.Q.k.a.a.a.p.q.S o @ 9.i.i.i.> . = 5.r.a.a.a.a.L.[.z.2.E %                               ",
"                              % 0 1.d.Q.].k.i.i.a.p.3.A X O %.i.i.i.; . = 2.t.i.i.i.i.T.[.z.q.Q %                               ",
"                              $ 0 5.d.Q.].k.i.i.i.u.q.A X O %.i.a.i.; . = r.0.i.i.i.i.T.[.z.q.E % k                             ",
"                              /.M.n N $.$.7.e.u.i.p.q.A X O 9.i.i.i.; . = q.q.i.i.e.e.#.$.F b G                                 ",
"                                  * & r i ;.2.p.i.e.3.A X O 9.i.i.i.; . = q.q.i.i.q.2.P u 7 $ c.                                ",
"                                  & < r s ;.q.p.i.p.q.A X O %.i.i.i.; . = q.q.i.i.q.1.P u 7 % c.                                ",
"                                  j q r u ) ,.w.i.p.q.S + @ %.i.i.i.> X = 3.q.i.a.1.,.M u w 6 n.                                ",
"                                      6 < t m =.i.u.q.( $ - 8.i.i.i.B # n 2.t.i.p.L m 3 , m.                                    ",
"                                      5 & e u =.i.e.0.( & 7 8.i.i.i.B $ b q.q.i.s.M u 3 % ^.                                    ",
"                                      5 % e s =.i.u.3.) & 2 8.i.i.a.B $ b 2.q.i.y.M i 1 $ ^.                                    ",
"                                      m.b.f 8 ( u.e.e.-.r i w.i.i.i.Q e P w.e.u.0.t 8 v.n.                                      ",
"                                          l $ P q.e.i.t. .{ p.i.i.i.:.| >.i.u.q.-.3 &  X                                        ",
"                                          k * E q.t.i.t.] ] p.i.i.i.:.| >.i.u.q.-.7 &  X                                        ",
"                                          z % E 3.e.i.w.] { p.i.i.i.:. .:.i.u.q.-.2 *  X                                        ",
"                                          z $ E q.e.i.u.t.t.i.i.i.i.p.t.p.i.u.q.-.2 &  X                                        ",
"                                          k % E q.t.i.i.a.i.i.i.i.i.i.i.i.i.u.q.<.3 &  X                                        ",
"                                          l $ E q.t.i.i.i.i.i.i.i.i.i.i.i.i.u.q.-.7 &                                           ",
"                                         Xx < Q t.e.i.i.u.u.u.u.u.u.u.u.a.i.u.t.1.9 1 (.                                        ",
"                                      j , y r =.i.i.i.u.0.q.q.2.2.q.2.3.e.i.i.i.y.N u 3 * ^.                                    ",
"                                      6 % e p =.i.i.i.u.q.q.2.2.2.2.3.2.e.i.i.i.y.M i 3 % ^.                                    ",
"                                      6 & e u =.i.i.i.u.q.2.q.q.q.2.2.3.t.i.i.i.y.M t 3 %                                       ",
"                                      6 & H U 1.i.u.t.q.>.[ N b b b ^ } :.e.u.i.p.R K 4 %                                       ",
"                                      5 & K  .5.i.p.2.:...R 1 $ % $ a  .} 2.q.a.p.{ | 4 %                                       ",
"                                      6 & K  .5.i.u.q.4...R 1 % % % a  .} 2.t.a.a.{ | 8 %                                       ",
"                                      6 , U ] 6.u.q.1.;.R U q 6 6 6 h R [ ,.2.p.w.{ ' 8 %                                       ",
"                                      5 & / 6.} { Y H i 1 w         c.< 8 M J ..{ 4.1.0 %                                       ",
"                                      5 < ) r.}  .Y i e % 6         n.% 4 u H | ..5.5.0 %                                       ",
"                                      6 & ) r.>...Y p e % 5         b.% 4 u H | ] 2.2.0 %                                       ",
"                                      6 & B W J v u e w c.            x.c e e m H I E 7 &                                       ",
"                                      6 & % & & % & * z                   & & % & & & & %                                       ",
"                                      6 % & & & & & & z                   % & & & & & & %                                       ",
"                                      j & & , * & & & z                   & & & , * & & &                                       ",
"                                                                                                                                ",
"                                                                                                                                ",
"                                                                                                                                ",
"                                                                                                                                ",
"                                                                                                                                "
};
