/* XPM */
static char *_03010e4002e49b39ccc8ece874a85e3Y2Tc5711KQXO04wG[] = {
/* columns rows colors chars-per-pixel */
"48 48 8 1 ",
"  c None",
". c black",
"X c #484A77",
"o c #4D65B4",
"O c #4D9BE6",
"+ c #9BABB2",
"@ c #C7DCD0",
"# c white",
/* pixels */
"                                                ",
"                                                ",
"                                                ",
"                                                ",
"                                                ",
"                                                ",
"                                                ",
"                                                ",
"                                                ",
"                                                ",
"                                                ",
"                       ..                       ",
"                      .@#.                      ",
"                     .@@##.                     ",
"                     .@oo#.                     ",
"                    .@XooO#.                    ",
"                    .@XooO#.                    ",
"                   .@XXooOO#.                   ",
"                   .@XXooOO#.                   ",
"                   .+@@oo##@.                   ",
"                  ..+@@@##@@..                  ",
"                 .+..+@@##@..@.                 ",
"                .@+..+@@##@..@#.                ",
"               .@@+..+@@##@..@##.               ",
"              .@@@+..+@@##@..@###.              ",
"             .@@X@+..+@@##@..@#o##.             ",
"            .@@@X@+..+@@##@..@#o###.            ",
"           .@@X@X@+..+@@##@..@#o#o##.           ",
"          .@@@X@@@+..+@@##@..@###o###.          ",
"         .+@@@@@@++..+@@##@..@@######@.         ",
"         .+@@@@++.....@@##.....@@####@.         ",
"         .@@@++..    .@@##.    ..@@###.         ",
"         .@++..      .@@##.      ..@@#.         ",
"         .+..        .@@##.        ..@.         ",
"         ..          .@@##.          ..         ",
"                     .@..#.                     ",
"                     ..  ..                     ",
"                                                ",
"                                                ",
"                                                ",
"                                                ",
"                                                ",
"                                                ",
"                                                ",
"                                                ",
"                                                ",
"                                                ",
"                                                "
};
