/* XPM */
static char *e8a3c87523624874826f51e5701fa08ap8esk7bWdwi7FsDV[] = {
/* columns rows colors chars-per-pixel */
"64 64 76 1 ",
"  c None",
". c #020202",
"X c #080707",
"o c #0C0B0B",
"O c #150901",
"+ c #1D0D02",
"@ c #100F0F",
"# c #1C120B",
"$ c #141313",
"% c #1A1715",
"& c #1D1816",
"* c #1D1C1C",
"= c #210E02",
"- c #20150F",
"; c #241F1C",
": c #232222",
"> c #292626",
", c #2C2A2A",
"< c #312926",
"1 c #322E2D",
"2 c #39312E",
"3 c #343232",
"4 c #393635",
"5 c #363738",
"6 c #3D3A3A",
"7 c #413E3E",
"8 c #454242",
"9 c #494546",
"0 c #474849",
"q c #4B4A4B",
"w c #514E4E",
"e c #4E4F50",
"r c #535253",
"t c #595556",
"y c #57595A",
"u c #5D5A5B",
"i c #625E5E",
"p c #666364",
"a c #6A6666",
"s c #6E6969",
"d c #726D6D",
"f c #767272",
"g c #7A7676",
"h c #787778",
"j c #7C7A7A",
"k c #817D7D",
"l c #827F80",
"z c #858282",
"x c #898686",
"c c #8F8E8F",
"v c #928F8F",
"b c #908F90",
"n c #8F9294",
"m c #959191",
"M c #999596",
"N c #9D9B9C",
"B c #A09D9D",
"V c #A3A1A2",
"C c #AAAAAB",
"Z c #B6B5B6",
"A c #B5B7B9",
"S c #B8B7B8",
"D c #BBBCBD",
"F c #BCBEC0",
"G c #C0BFC1",
"H c #C1C3C5",
"J c #C6C7C9",
"K c #CACBCD",
"L c #CECFD2",
"P c #CED1D3",
"I c #D2D4D7",
"U c #D3D5D8",
"Y c #D7D9DC",
"T c #D8DBDE",
"R c #DBDEE1",
"E c #E0E3E6",
/* pixels */
"                                                                ",
"                                                                ",
"                                                                ",
"                                                                ",
"                                                                ",
"                                                                ",
"                                                                ",
"                                                                ",
"                                                                ",
"                                                                ",
"                                                                ",
"                                                                ",
"                                                                ",
"                                                                ",
"                                                                ",
"                                                                ",
"                                                                ",
"                                                                ",
"                              48888883                          ",
"                           6wikbvmvvxpw4                        ",
"                          wdNLIFDFDFPFNp8>                      ",
"                        7ivDPnu:;**:unHVdr4                     ",
"                       6pbAAyoo****X.XtZCju,                    ",
"                       8fZH5.$:;,6@.$,.3GZd4                    ",
"                       8fSpX$::59*X,01*XpSf9                    ",
"                       8fSe.*,85o@77:59oqSf9                    ",
"                       8fAr.10;X>03>85@.wSd6                    ",
"                       8fZyX*$o78:10>...8Mp,                    ",
"                       1rzc*..@:$$*o...$ai6                     ",
"                        ,7ds70000000008tq1                      ",
"                         16pbCDJJJJKDNf81                       ",
"                        >8u8989pppapw968q1                      ",
"                       >qxMjsiwqq99wwpfggt,                     ",
"                       >pUIZpkVMzzxMVzaZKz1                     ",
"                       6jKLC8CRTYYYTEC8ZEc7>                    ",
"                       7pddi4phghhhhhp5lNkq,                    ",
"                       398971qwwwwwww4,89q6>                    ",
"                       >122<3pMzwwrkf7<243<                     ",
"                         +++&8mk1#1ju;++++                      ",
"                            4aBz4%4ka6                          ",
"                          +>rzvg1#1fzi1+                        ",
"                           #<22<; ;121-O                        ",
"                           ++==+======+O                        ",
"                             O       O                          ",
"                             +=======+                          ",
"                                 OO                             ",
"                                 O                              ",
"                                                                ",
"                                                                ",
"                                                                ",
"                                                                ",
"                                                                ",
"                                                                ",
"                                                                ",
"                                                                ",
"                                                                ",
"                                                                ",
"                                                                ",
"                                                                ",
"                                                                ",
"                                                                ",
"                                                                ",
"                                                                ",
"                                                                "
};
