/* XPM */
static char *_55f6121f3bc474ad3b54250c5e6a497Ei0mK91YaNYB1xH0[] = {
/* columns rows colors chars-per-pixel */
"64 64 68 1 ",
"  c None",
". c #040200",
"X c #0B0501",
"o c #110700",
"O c #150901",
"+ c #1B0C02",
"@ c #200F04",
"# c #231105",
"$ c #2B1506",
"% c #2F1807",
"& c #261408",
"* c #2C1708",
"= c #2F1808",
"- c #301707",
"; c #311807",
": c #341A09",
"> c #391D09",
", c #3E200B",
"< c #43230D",
"1 c #4A260D",
"2 c #4E290F",
"3 c #512A0F",
"4 c #422511",
"5 c #4D2A12",
"6 c #552D11",
"7 c #582F12",
"8 c #573117",
"9 c #5C3214",
"0 c #563219",
"q c #5B3419",
"w c #613415",
"e c #683717",
"r c #6B3917",
"t c #633718",
"y c #663919",
"u c #6C3C1A",
"i c #713E1A",
"p c #693F21",
"a c #6F401E",
"s c #75411D",
"d c #79421D",
"f c #6D4122",
"g c #754422",
"h c #7C4722",
"j c #7D4823",
"k c #83471F",
"l c #834C25",
"z c #8B4E25",
"x c #834D28",
"c c #8D5026",
"v c #86502A",
"b c #8B532C",
"n c #945326",
"m c #9B5426",
"M c #90562F",
"N c #995528",
"B c #9D592B",
"V c #915730",
"C c #955931",
"Z c #9B5E34",
"A c #A05727",
"S c #A45D2C",
"D c #AD5F2B",
"F c #A35F31",
"G c #9E6035",
"H c #AE602C",
"J c #B0612C",
"K c #A36032",
/* pixels */
"                                       OoOOoOOooO               ",
"                                      OO@#######OO              ",
"                             OOOOOOOOOO+:>>::>>:+OOOO           ",
"                          OOOOOoOOOOOOo+;>>:>::>%+OOOO          ",
"                         OOOO++#@@@@@@@#>,,,,,,,>&++OOO         ",
"                       OOOOOO>321222222233332333>::;+OOO        ",
"                      OOO&;;;19wttwwwywwwwwww963<1<:&+OOO       ",
"                    OOO++,3966wssddddsssdddss933371>>@OOO       ",
"                  OOOO#<<2wdsgdkdjjjhhhjjjjjssuy7631>;$OOO      ",
"                 OOO##:399ulczczcccczzzzzczldsss9763<>$OOOO     ",
"               OOOo+1337dljlSDDDSDHSDDDDDDNlldssiw363<$OOOOO    ",
"               Oo$:,29yajnNNDDDDHHHHDDDDDHmlljgsdrw33<;#+OOOO   ",
"               OO<398rsllBHHDDDDDDDDDDDSSSNhlljsidr63<>:+OOOO   ",
"            OOo+<3wddjdlAHHHDDDDDDDDDHk;;;-:hljsdssu331>:+OOOOO ",
"            o@&$29alccccDDDDDDDDDDDDDHdoOOO+8yussssiw71<>$+OOOO ",
"           .O<333allCKDDDDDDDDDDDHDDHHdOOOOO+O>ssssssw33>:$OO+OO",
"           XO,7iuhzmSDDDDDDDDDDDDDJAir6$$$@OOO&>,wgssr931>:#+OOO",
"           O+<ezzlnDJDDDDDDDDDDDDDDn<>><>>$+OOOoo6ssssu93<>:+OOO",
"         OO+<5iSSDSDDDDDDDDDDDDDDJz<>fVv6<>;+OOOO6dssssu931::@OO",
"         O+-3wlDDDDDDDDDDDDDDDDDDJl>,jZC71>:@+OOO6ssssssw71>>$+O",
"        OO$63xFDHDDDDHDDDDDDDDDDDJk>2lZV961>>@O+O6gssssiiw1>>>$O",
"       .O-<7jBDDDDDDDDDDDDDDDDDDDDk>6xZZxt21>;#OO&5sssssiw1;:>$O",
"       .O,7tCDDDDDDDDDDDDDDDDDDDDJk>6jZZZs73>>$O+O>sssssdw1>>>$O",
"       OO>uZSDJJJHDDDDDDDDDJDDDDDJk,6xZZZZj62<$+;@:gsssssw1>>>$O",
"      O+*8lZDziiimHDDDJDDDDDDDDDDDk,3lZZZZx66<$+:@>gsssssw1>>>#+",
"     OO+5xZZDw$OOiJDDDDDDDDDDDDDDJk>3lZZZZx63<$+:@:issssiw1:>>$O",
"     O+>jCFAw<&OOdJDDDDDDDDDDDDDDJk>2xZZZZCl9<$+:@>gsssssw1>>>$O",
"     o#<VKKA44>OOdJDDDDDDDDDDJDDDDk,6xFZZZCb9<#+:@:sssdisw1>:>$O",
"    OO#<VFDA1gfOOdJDJDDDDDDDDDDDDJl>2xZZZZx73<$+:@:sssssi91>>>$O",
"   OOO#<MKmu>jfOOdJDDDDDDDDDDDDDDJk>2xZZZZx31>$+&+:sssssiw1>>:-O",
"   OOO#<MFk>>jfOOdJDDDDDDDJDDDDDDDk>5xZZZZl3>>$OOO>sssddde1:>>$O",
"  XO$;;<Mi1,jZfOOiJJDDDDDDDDDDDDDJl>>jFZZh93>&+OO4rssssiiw1>:#+O",
" .X+:>>1Vq>0VbqO+dJDDDDDDDDDDDDDDDz2>rMZZu21>@OOO6gisssssw1>>#OO",
" OOO:167V0qZZ5OOoiJDDDJDDDDDDDDDDDDm<>wZFp1>>@OOO6dgsssss91>:@OO",
" O+$>1tlF7qVq&o+7mJDDDDDDDDDDDDDDDDDi5,0y6,>&+O+4rigssdgsw1::#OO",
" O@>>1uZDw0v#Oo$mJDDDDDDDDDDJDDDDDDDJe-O-::-OOO@uddisdiisw1>>@OO",
" O@>52uFDw-*+Oo&mDDDDDDDDDDDDDDDDDDDJArO++++OOO@risssssss91>>@OO",
" O#>2whFDw$OO:,5AJDDDDDDDDDDDDDDDDDDJJl,+OOOOO+,igdisssssw1>:#OO",
"OO@>2xFDDw#OOiDDDDDDDDDDDDDDDDDDDDDDDDDm&OoOOO>iidddsssssw1::@OO",
"O#;>2xFDDniirmJDDDDDDDDDDDJDDDJDDDDDDDDSiiii00eigiigssssd3<:>#OO",
"O*>>3xFJDJJJJDDDDDDDDDDDDDDDDDDDDDDDDDDDHHHDlzhisssssssss1:>:@OO",
"O$>>3xFDDDDDDDDDDDDDDDDDDDDDDDDDDDDDDDHDHDDDzlhisssssssi<>>:++OO",
"O&$>3xFDDDDDDDDDJDDDDDDDDJDDDDDDDDDDDDDDDDDDlllhsssssssu<>>:+OOO",
"OO@>3xFJDDDDDDDDDDDDDDDDDDDDDDDDDDDDDDDDDDDSllhisssssssu,:::+OO ",
" O&>3xFDDDDDDDDDDDDDJDDDDDDDDDDDDDDDDHDHDDDSllhissssssr1>>%#OOO ",
" O@>3jBDDJDDDDDDDDDDDDDDDDDDDDDDHDDDDDDDDDDAlllgsssssi8>>:&OOOO ",
" O@>66sDDDDDDDDDJDDDDDDDDDDDDDDDDDDDDDDDDnlzllhisssss3>>>#OOOOO ",
" O+$<2iDDDDDDDDDDDDDDDDDDDHDDDDDDDDDDDDDDni67ihisssu9<>:$+OOOO  ",
" OO+:1iDDDDDDDDDDDDDDDDDDDDDDDHDDDDDHHHHDnqOo6dssssu,>>:+OOO    ",
"  O+:19rrnJDDDDDDDDDDDDDDDDDDDDDDDDDHHAccbqOO6gsssr<>>$+OOO     ",
"   +;1623kSDDDDDDDDDJDDDDDDDDDDDDDDDSSNjau5OO6sssu8:::$OOOO     ",
"   +:>>>33iJJJDDDDDDDDDDDDDDDDDDDDHDzlxj&+OOO6sss6>>>#OOO       ",
"   O&#*><2wkkkADFSFFFSSFSFSSFSBNNNNNxq54+,,@,tss9<;&$+OO+       ",
"   OOO#;>1323rlZZZZCZZZZZZCZZZMldjhhj,ooOff&ussr,:$OoOOO        ",
"     OoO:,,<3rshjhhjhhhjhhhlhhhi:****+OOo&&+udq&+++OOOO         ",
"      oX$$$%2euuruuuuruuuuuuuuuw+OOO&******=8q<OOOOOOO          ",
"       OO+XX26666767666767669385+OO@yssssssy#O+OOOOOO           ",
"         Ooo*;;;---;:----;;;;;;=+OO+,,,,,<,,+OOOO               ",
"         OOOOOOOOOOOOOOOOOOOOOOOOOOOoOOOOoOOOOOO                ",
"                OOOOOOOOOOOOOOOOOOOOOOOOOOOOOOO                 ",
"                OOOOOOO+OOOOOOOOOOOOOOO+OOOOOO                  ",
"                                                                ",
"                                                                ",
"                                                                "
};
